<svg xmlns="http://www.w3.org/2000/svg" width="644" height="234" viewBox="0 0 644 234">
<g>
<path d="M 96.17 199.35 C93.09,202.13 91.34,201.27 85.31,193.98 C73.47,179.69 64.17,161.44 59.31,143.00 C55.88,130.00 54.92,102.03 57.44,88.63 C61.09,69.21 70.20,48.50 81.78,33.29 C90.23,22.19 93.13,20.27 96.43,23.57 C98.87,26.01 98.42,27.22 92.07,35.17 C74.87,56.72 66.29,79.58 65.25,106.66 C64.40,128.85 67.68,144.66 77.10,163.78 C80.95,171.60 85.85,179.52 90.58,185.57 C94.66,190.79 98.00,195.65 98.00,196.38 C98.00,197.10 97.18,198.43 96.17,199.35 ZM 120.11 175.23 C119.68,176.39 118.31,177.71 117.06,178.17 C115.17,178.87 114.19,178.38 111.32,175.26 C98.28,161.11 88.84,138.38 87.38,117.60 C85.79,94.88 93.79,69.35 108.18,51.27 C112.70,45.60 113.60,44.93 116.38,45.20 C121.49,45.69 121.15,49.58 115.31,57.21 C101.42,75.36 94.44,99.36 96.97,120.21 C99.01,137.00 104.95,151.64 115.46,165.81 C119.72,171.55 120.72,173.58 120.11,175.23 ZM 537.69 157.34 C534.40,158.90 528.66,159.33 524.75,158.31 C523.71,158.04 523.00,156.90 523.00,155.51 C523.00,150.86 523.94,150.00 529.03,150.00 C533.05,150.00 534.20,149.56 535.93,147.37 C537.07,145.92 538.00,144.28 538.00,143.72 C538.00,143.17 534.62,133.99 530.50,123.34 C526.38,112.68 523.00,103.72 523.00,103.43 C523.00,103.14 525.30,103.03 528.11,103.20 L 533.22 103.50 L 537.73 116.00 C540.20,122.88 542.40,128.69 542.62,128.92 C543.42,129.79 544.32,127.78 548.48,115.82 L 552.76 103.50 L 557.85 103.20 L 562.93 102.90 L 561.06 108.20 C554.96,125.51 545.58,149.01 543.55,152.09 C542.24,154.07 539.61,156.43 537.69,157.34 ZM 174.00 121.16 L 174.00 142.00 L 169.11 142.00 C163.13,142.00 163.00,141.75 163.00,129.67 L 162.99 120.50 L 146.03 90.50 L 151.24 90.19 C151.46,90.18 151.68,90.16 151.89,90.15 C153.62,90.04 154.76,89.97 155.75,90.33 C157.78,91.08 159.14,93.67 163.59,101.61 C166.18,106.23 168.57,110.00 168.90,109.99 C169.23,109.99 171.99,105.60 175.03,100.24 L 180.56 90.50 L 191.90 89.90 L 182.95 105.53 ZM 144.00 149.97 C144.00,151.88 143.31,153.30 142.05,153.98 C139.10,155.55 134.01,150.51 129.20,141.24 C123.52,130.30 121.71,123.26 121.67,112.00 C121.63,97.63 124.94,86.71 132.82,75.30 C136.42,70.08 139.48,68.20 142.50,69.36 C144.96,70.31 144.32,75.83 141.35,79.36 C137.69,83.69 133.29,93.27 131.91,99.93 C131.26,103.07 130.97,109.62 131.24,115.00 C131.79,125.80 134.51,133.80 140.46,142.08 C142.61,145.07 144.00,148.17 144.00,149.97 Z" fill="rgb(2,2,2)"/>
<path d="M 469.67 140.35 C462.66,143.68 453.47,143.21 448.12,139.26 C440.68,133.76 438.20,119.76 443.10,110.95 C447.44,103.16 459.28,99.58 468.30,103.35 C472.69,105.19 477.76,111.19 478.57,115.51 C480.60,126.33 476.79,136.98 469.67,140.35 ZM 350.18 140.41 C343.70,143.76 331.67,142.72 326.89,138.40 C322.99,134.87 321.00,129.51 321.00,122.51 C321.00,114.50 322.58,110.46 327.33,106.28 C331.44,102.67 335.86,101.54 343.13,102.24 C352.00,103.09 357.00,109.04 357.00,118.75 L 357.00 124.00 L 344.00 124.00 C331.84,124.00 331.00,124.12 331.00,125.92 C331.00,126.98 332.17,129.23 333.59,130.92 C335.77,133.51 336.89,134.00 340.63,134.00 C344.06,134.00 345.67,133.42 347.61,131.48 L 350.13 128.96 L 353.07 131.05 C354.68,132.20 356.00,133.46 356.00,133.85 C356.00,135.40 352.73,139.09 350.18,140.41 ZM 245.00 129.55 L 245.00 142.00 L 235.00 142.00 L 235.00 102.00 L 239.50 102.00 C243.89,102.00 244.00,102.08 244.00,105.17 L 244.00 108.35 L 246.25 106.30 C249.89,102.98 252.56,102.00 257.92,102.00 C262.08,102.00 263.54,102.51 266.23,104.92 L 269.50 107.83 L 269.82 124.92 L 270.13 142.00 L 260.00 142.00 L 260.00 127.56 C260.00,113.77 259.90,113.04 257.78,111.56 C255.15,109.72 252.98,109.60 249.66,111.11 C245.83,112.86 245.00,116.13 245.00,129.55 ZM 376.00 129.55 L 376.00 142.00 L 365.96 142.00 L 366.23 122.25 L 366.50 102.50 L 370.75 102.19 C374.70,101.91 375.00,102.06 375.00,104.38 C375.00,105.76 375.45,107.16 376.00,107.50 C376.55,107.84 377.00,107.63 377.00,107.04 C377.00,104.78 383.45,102.01 388.73,102.00 C393.11,102.00 394.51,102.48 397.23,104.92 L 400.50 107.83 L 401.13 142.12 L 391.50 141.50 L 391.22 127.55 C391.00,116.35 390.62,113.24 389.32,111.80 C386.33,108.50 379.15,110.19 377.11,114.66 C376.49,116.03 376.00,122.55 376.00,129.55 ZM 304.75 135.75 L 302.61 142.00 L 290.35 142.00 L 283.52 123.25 C279.77,112.94 276.48,103.91 276.22,103.19 C275.86,102.20 277.00,101.96 281.00,102.19 L 286.27 102.50 L 290.64 115.00 C293.05,121.88 295.27,128.18 295.58,129.00 C296.38,131.17 297.37,129.12 302.44,114.71 L 306.73 102.50 L 310.47 102.18 C316.74,101.65 317.12,102.18 314.82,108.19 C311.70,116.30 307.14,128.80 304.75,135.75 ZM 430.37 142.05 C425.27,143.24 424.09,143.18 420.33,141.54 C414.94,139.20 413.95,136.54 413.29,122.64 L 412.70 110.10 L 410.10 109.80 C407.85,109.54 407.50,109.03 407.50,106.00 C407.50,102.93 407.83,102.46 410.25,102.18 C412.64,101.91 413.00,101.43 413.00,98.49 C413.00,94.55 413.11,94.46 419.00,93.60 L 423.50 92.95 L 423.50 101.50 L 434.50 102.50 L 435.12 110.00 L 429.58 110.00 C424.44,110.00 423.99,110.19 423.38,112.61 C422.40,116.53 423.63,130.85 425.11,132.63 C426.05,133.76 427.42,134.03 430.11,133.60 C433.57,133.04 433.88,133.21 434.92,136.19 C436.24,139.98 435.57,140.85 430.37,142.05 ZM 498.04 132.75 L 498.00 142.00 L 487.96 142.00 L 488.23 122.25 L 488.50 102.50 L 493.25 102.20 C497.95,101.89 498.00,101.92 498.00,104.95 C498.00,106.63 498.19,108.00 498.42,108.00 C498.66,108.00 500.20,106.65 501.85,105.00 C504.04,102.80 505.79,102.00 508.36,102.00 C512.64,102.00 513.35,102.98 512.54,107.79 C511.93,111.39 511.79,111.50 507.63,111.50 C500.02,111.50 498.12,115.70 498.04,132.75 ZM 222.92 101.89 L 223.50 142.00 L 218.72 142.00 C215.80,142.00 213.77,141.51 213.50,140.75 C213.25,140.06 213.16,131.18 213.28,121.00 L 213.50 102.50 ZM 453.94 132.15 C455.26,133.22 457.81,134.00 460.02,134.00 C463.07,134.00 464.36,133.37 466.51,130.80 C468.96,127.90 469.17,127.00 468.80,121.17 C468.45,115.65 467.99,114.39 465.64,112.37 C462.63,109.78 459.44,109.38 455.61,111.13 C452.11,112.73 450.68,116.94 451.20,124.15 C451.56,129.02 452.12,130.68 453.94,132.15 ZM 331.00 117.57 C331.00,117.80 334.78,118.00 339.41,118.00 C347.62,118.00 347.80,117.95 347.26,115.75 C345.95,110.41 341.63,108.29 336.45,110.46 C333.60,111.65 331.00,115.04 331.00,117.57 ZM 222.80 95.80 C221.11,97.49 215.49,97.29 214.00,95.50 C212.17,93.29 212.48,88.86 214.57,87.33 C216.75,85.73 219.44,85.63 222.07,87.04 C224.28,88.22 224.75,93.85 222.80,95.80 Z" fill="rgb(183,183,183)"/>
<path d="M 0.00 117.00 L 0.00 0.00 L 322.00 0.00 L 644.00 0.00 L 644.00 117.00 L 644.00 234.00 L 322.00 234.00 L 0.00 234.00 L 0.00 117.00 ZM 96.17 199.35 C97.18,198.43 98.00,197.10 98.00,196.38 C98.00,195.65 94.66,190.79 90.58,185.57 C85.85,179.52 80.95,171.60 77.10,163.78 C67.68,144.66 64.40,128.85 65.25,106.66 C66.29,79.58 74.87,56.72 92.07,35.17 C98.42,27.22 98.87,26.01 96.43,23.57 C93.13,20.27 90.23,22.19 81.78,33.29 C70.20,48.50 61.09,69.21 57.44,88.63 C54.92,102.03 55.88,130.00 59.31,143.00 C64.17,161.44 73.47,179.69 85.31,193.98 C91.34,201.27 93.09,202.13 96.17,199.35 ZM 120.11 175.23 C120.72,173.58 119.72,171.55 115.46,165.81 C104.95,151.64 99.01,137.00 96.97,120.21 C94.44,99.36 101.42,75.36 115.31,57.21 C121.15,49.58 121.49,45.69 116.38,45.20 C113.60,44.93 112.70,45.60 108.18,51.27 C93.79,69.35 85.79,94.88 87.38,117.60 C88.84,138.38 98.28,161.11 111.32,175.26 C114.19,178.38 115.17,178.87 117.06,178.17 C118.31,177.71 119.68,176.39 120.11,175.23 ZM 537.69 157.34 C539.61,156.43 542.24,154.07 543.55,152.09 C545.58,149.01 554.96,125.51 561.06,108.20 L 562.93 102.90 L 557.85 103.20 L 552.76 103.50 L 548.48 115.82 C544.32,127.78 543.42,129.79 542.62,128.92 C542.40,128.69 540.20,122.88 537.73,116.00 L 533.22 103.50 L 528.11 103.20 C525.30,103.03 523.00,103.14 523.00,103.43 C523.00,103.72 526.38,112.68 530.50,123.34 C534.62,133.99 538.00,143.17 538.00,143.72 C538.00,144.28 537.07,145.92 535.93,147.37 C534.20,149.56 533.05,150.00 529.03,150.00 C523.94,150.00 523.00,150.86 523.00,155.51 C523.00,156.90 523.71,158.04 524.75,158.31 C528.66,159.33 534.40,158.90 537.69,157.34 ZM 144.00 149.97 C144.00,148.17 142.61,145.07 140.46,142.08 C134.51,133.80 131.79,125.80 131.24,115.00 C130.97,109.62 131.26,103.07 131.91,99.93 C133.29,93.27 137.69,83.69 141.35,79.36 C144.32,75.83 144.96,70.31 142.50,69.36 C139.48,68.20 136.42,70.08 132.82,75.30 C124.94,86.71 121.63,97.63 121.67,112.00 C121.71,123.26 123.52,130.30 129.20,141.24 C134.01,150.51 139.10,155.55 142.05,153.98 C143.31,153.30 144.00,151.88 144.00,149.97 ZM 350.18 140.41 C352.73,139.09 356.00,135.40 356.00,133.85 C356.00,133.46 354.68,132.20 353.07,131.05 L 350.13 128.96 L 347.61 131.48 C345.67,133.42 344.06,134.00 340.63,134.00 C336.89,134.00 335.77,133.51 333.59,130.92 C332.17,129.23 331.00,126.98 331.00,125.92 C331.00,124.12 331.84,124.00 344.00,124.00 L 357.00 124.00 L 357.00 118.75 C357.00,109.04 352.00,103.09 343.13,102.24 C335.86,101.54 331.44,102.67 327.33,106.28 C322.58,110.46 321.00,114.50 321.00,122.51 C321.00,129.51 322.99,134.87 326.89,138.40 C331.67,142.72 343.70,143.76 350.18,140.41 ZM 430.37 142.05 C435.57,140.85 436.24,139.98 434.92,136.19 C433.88,133.21 433.57,133.04 430.11,133.60 C427.42,134.03 426.05,133.76 425.11,132.63 C423.63,130.85 422.40,116.53 423.38,112.61 C423.99,110.19 424.44,110.00 429.58,110.00 L 435.12 110.00 L 434.81 106.25 L 434.50 102.50 L 429.00 102.00 L 423.50 101.50 L 423.50 97.22 L 423.50 92.95 L 419.00 93.60 C413.11,94.46 413.00,94.55 413.00,98.49 C413.00,101.43 412.64,101.91 410.25,102.18 C407.83,102.46 407.50,102.93 407.50,106.00 C407.50,109.03 407.85,109.54 410.10,109.80 L 412.70 110.10 L 413.29 122.64 C413.95,136.54 414.94,139.20 420.33,141.54 C424.09,143.18 425.27,143.24 430.37,142.05 ZM 469.67 140.35 C476.79,136.98 480.60,126.33 478.57,115.51 C477.76,111.19 472.69,105.19 468.30,103.35 C459.28,99.58 447.44,103.16 443.10,110.95 C438.20,119.76 440.68,133.76 448.12,139.26 C453.47,143.21 462.66,143.68 469.67,140.35 ZM 174.00 131.58 L 174.00 121.16 L 182.95 105.53 L 191.90 89.90 L 186.23 90.20 L 180.56 90.50 L 175.03 100.24 C171.99,105.60 169.23,109.99 168.90,109.99 C168.57,110.00 166.18,106.23 163.59,101.61 C156.72,89.36 157.23,89.83 151.24,90.19 L 146.03 90.50 L 154.51 105.50 L 162.99 120.50 L 163.00 129.67 C163.00,141.75 163.13,142.00 169.11,142.00 L 174.00 142.00 L 174.00 131.58 ZM 223.21 121.95 L 222.92 101.89 L 218.21 102.20 L 213.50 102.50 L 213.28 121.00 C213.16,131.18 213.25,140.06 213.50,140.75 C213.77,141.51 215.80,142.00 218.72,142.00 L 223.50 142.00 L 223.21 121.95 ZM 245.00 129.55 C245.00,116.13 245.83,112.86 249.66,111.11 C252.98,109.60 255.15,109.72 257.78,111.56 C259.90,113.04 260.00,113.77 260.00,127.56 L 260.00 142.00 L 265.07 142.00 L 270.13 142.00 L 269.82 124.92 L 269.50 107.83 L 266.23 104.92 C263.54,102.51 262.08,102.00 257.92,102.00 C252.56,102.00 249.89,102.98 246.25,106.30 L 244.00 108.35 L 244.00 105.17 C244.00,102.08 243.89,102.00 239.50,102.00 L 235.00 102.00 L 235.00 122.00 L 235.00 142.00 L 240.00 142.00 L 245.00 142.00 L 245.00 129.55 ZM 304.75 135.75 C307.14,128.80 311.70,116.30 314.82,108.19 C317.12,102.18 316.74,101.65 310.47,102.18 L 306.73 102.50 L 302.44 114.71 C297.37,129.12 296.38,131.17 295.58,129.00 C295.27,128.18 293.05,121.88 290.64,115.00 L 286.27 102.50 L 281.00 102.19 C277.00,101.96 275.86,102.20 276.22,103.19 C276.48,103.91 279.77,112.94 283.52,123.25 L 290.35 142.00 L 296.48 142.00 L 302.61 142.00 L 304.75 135.75 ZM 376.00 129.55 C376.00,122.55 376.49,116.03 377.11,114.66 C379.15,110.19 386.33,108.50 389.32,111.80 C390.62,113.24 391.00,116.35 391.22,127.55 L 391.50 141.50 L 396.32 141.81 L 401.13 142.12 L 400.82 124.97 L 400.50 107.83 L 397.23 104.92 C394.51,102.48 393.11,102.00 388.73,102.00 C383.45,102.01 377.00,104.78 377.00,107.04 C377.00,107.63 376.55,107.84 376.00,107.50 C375.45,107.16 375.00,105.76 375.00,104.38 C375.00,102.06 374.70,101.91 370.75,102.19 L 366.50 102.50 L 366.23 122.25 L 365.96 142.00 L 370.98 142.00 L 376.00 142.00 L 376.00 129.55 ZM 498.04 132.75 C498.12,115.70 500.02,111.50 507.63,111.50 C511.79,111.50 511.93,111.39 512.54,107.79 C513.35,102.98 512.64,102.00 508.36,102.00 C505.79,102.00 504.04,102.80 501.85,105.00 C500.20,106.65 498.66,108.00 498.42,108.00 C498.19,108.00 498.00,106.63 498.00,104.95 C498.00,101.92 497.95,101.89 493.25,102.20 L 488.50 102.50 L 488.23 122.25 L 487.96 142.00 L 492.98 142.00 L 498.00 142.00 L 498.04 132.75 ZM 222.80 95.80 C224.75,93.85 224.28,88.22 222.07,87.04 C219.44,85.63 216.75,85.73 214.57,87.33 C212.48,88.86 212.17,93.29 214.00,95.50 C215.49,97.29 221.11,97.49 222.80,95.80 ZM 331.00 117.57 C331.00,115.04 333.60,111.65 336.45,110.46 C341.63,108.29 345.95,110.41 347.26,115.75 C347.80,117.95 347.62,118.00 339.41,118.00 C334.78,118.00 331.00,117.80 331.00,117.57 ZM 453.94 132.15 C452.12,130.68 451.56,129.02 451.20,124.15 C450.68,116.94 452.11,112.73 455.61,111.13 C459.44,109.38 462.63,109.78 465.64,112.37 C467.99,114.39 468.45,115.65 468.80,121.17 C469.17,127.00 468.96,127.90 466.51,130.80 C464.36,133.37 463.07,134.00 460.02,134.00 C457.81,134.00 455.26,133.22 453.94,132.15 Z" fill="rgb(254,254,254)"/>
</g>
</svg>